<svg xmlns="http://www.w3.org/2000/svg" xmlns:xlink="http://www.w3.org/1999/xlink" fill="none" viewBox="0 0 264 349">
  <defs>
    <path id="b" fill="#fff" d="M0 0h264v349H0z"/>
  </defs>
  <g clip-path="url(#a)">
    <use xlink:href="#b"/>
    <path fill="#FFF8C4" d="M137.5 11v79h-11V11z"/>
    <path fill="#000" d="M127 9a2 2 0 1 0-4 0h4Zm-4 0v80h4V9h-4Zm18 0a2 2 0 1 0-4 0h4Zm-4 0v80h4V9h-4Z"/>
    <path fill="#FFF8C4" stroke="#000" stroke-width="3" d="M124.5 9c0 1.762 1.071 3.174 2.425 4.076 1.365.91 3.163 1.424 5.075 1.424 1.912 0 3.71-.514 5.075-1.424 1.354-.902 2.425-2.314 2.425-4.076 0-1.762-1.071-3.174-2.425-4.077C135.71 4.013 133.912 3.5 132 3.5c-1.912 0-3.71.514-5.075 1.423-1.354.903-2.425 2.315-2.425 4.077Z"/>
    <path fill="url(#c)" d="M56.5 104h76v191.5l-32-3-12.5-7L74 194l-8-11.5-9.5-78.5Z"/>
    <path stroke="#000" stroke-width="6" d="M57 103c6 54 5 87.5 20 92 17 5.1 23 11 23 24.5"/>
    <path stroke="#000" stroke-linecap="round" stroke-width="3" d="M87.79 231.984c-3.5-8 5.5-13 10 0s14.5 22.5 22.5 24c9.5 1.781 14.5-9.5 6.5-15"/>
    <path fill="#FFF8C4" stroke="#000" stroke-width="2" d="M127.292 210c.648 0 1.187.135 1.643.403.454.268.888.705 1.27 1.408.784 1.442 1.295 3.903 1.295 7.856 0 2.97-.006 6.168-.621 8.623-.306 1.221-.739 2.155-1.31 2.773-.54.583-1.248.937-2.277.937-1.48 0-2.545-.222-3.33-.624-.762-.389-1.333-.984-1.769-1.881-.448-.92-.754-2.159-.942-3.808-.187-1.643-.251-3.631-.251-6.02 0-4.755.788-7.094 1.831-8.27.995-1.12 2.417-1.397 4.461-1.397Z"/>
    <path fill="#159360" d="M126.958 212c2.155 0 3.542 2 3.542 8 0 4.4 0 10-3.542 10-4.264 0-4.958-2.8-4.958-10s2.125-8 4.958-8Z"/>
    <path fill="#FFF8C4" stroke="#000" stroke-width="2" d="M116.25 210c2.281 0 3.75 2.222 3.75 8.889 0 4.889 0 11.111-3.75 11.111-4.516 0-5.25-3.111-5.25-11.111s2.25-8.889 5.25-8.889Z"/>
    <path fill="#159360" d="M116.083 212c1.774 0 2.917 1.778 2.917 7.111 0 3.911 0 8.889-2.917 8.889-3.512 0-4.083-2.489-4.083-8.889 0-6.4 1.75-7.111 4.083-7.111Z"/>
    <path fill="#FFF8C4" stroke="#000" stroke-width="2" d="M108.083 212c1.774 0 2.917 1.667 2.917 6.667 0 3.666 0 8.333-2.917 8.333-3.512 0-4.083-2.333-4.083-8.333s1.75-6.667 4.083-6.667Z"/>
    <path fill="#159360" d="M107.917 214c1.267 0 2.083 1.222 2.083 4.889 0 2.689 0 6.111-2.083 6.111-2.509 0-2.917-1.711-2.917-6.111 0-4.4 1.25-4.889 2.917-4.889Z"/>
    <path fill="#FFF8C4" stroke="#000" stroke-width="2" d="M101.5 213c1.521 0 2.5 1.333 2.5 5.333 0 2.934 0 6.667-2.5 6.667-3.01 0-3.5-1.867-3.5-6.667S99.5 213 101.5 213Z"/>
    <path fill="#159360" d="M101.333 215c1.014 0 1.667.889 1.667 3.556 0 1.955 0 4.444-1.667 4.444-2.007 0-2.333-1.244-2.333-4.444s1-3.556 2.333-3.556Z"/>
    <path stroke="#000" stroke-width="3" d="M98 218.5c6 1 25.5 3.5 34.5 3"/>
    <path fill="#000" d="M103.542 208.287a1 1 0 1 0 1.916-.574l-1.916.574ZM88 199c8.165 0 14.197 4.805 15.542 9.287l1.916-.574C103.803 202.195 96.835 197 88 197v2Z"/>
    <path fill="#159360" stroke="#000" stroke-width="2" d="M119.954 194.577c-1.629-5.213.395-15.223 11.546-27.541v27.136c-2.464 3.289-5.015 4.534-6.99 4.485-1.956-.05-3.713-1.384-4.556-4.08Z"/>
    <path fill="#000" d="M132 193.159c-8.225 13.61-19.974-3.286 0-28.159v28.159Z"/>
    <path stroke="#000" stroke-width="6" d="M73 193c3 23.667 10 74 13 86 3.525 14.1 25 17 46.5 17"/>
    <circle cx="96.5" cy="252.5" r="5.5" fill="#000"/>
    <circle cx="109.5" cy="260.5" r="5.5" fill="#000"/>
    <circle cx="99.5" cy="272.5" r="5.5" fill="#000"/>
    <circle cx="113.5" cy="277.5" r="5.5" fill="#000"/>
    <circle cx="123.5" cy="267.5" r="5.5" fill="#000"/>
    <path fill="#000" d="M85.01 221.666a1.5 1.5 0 0 0 2.98-.332l-2.98.332Zm-2.007-22.078c.402 6.842 1.506 17.575 2.006 22.078l2.982-.332c-.5-4.497-1.596-15.164-1.994-21.922l-2.994.176Z"/>
    <path fill="#000" d="M92.58 211.394a1 1 0 1 0 1.84-.788l-1.84.788Zm-7.744-6.408c1.281.214 2.877.99 4.352 2.17 1.468 1.175 2.723 2.675 3.393 4.238l1.838-.788c-.83-1.937-2.325-3.687-3.982-5.012-1.65-1.32-3.554-2.294-5.273-2.58l-.328 1.972Z"/>
    <path fill="#000" d="M90.08 212.39a1 1 0 1 0 1.84-.78l-1.84.78Zm-5.246-4.404c.838.141 1.918.665 2.934 1.488 1.009.816 1.86 1.852 2.311 2.916l1.842-.78c-.609-1.436-1.698-2.722-2.895-3.691-1.19-.963-2.58-1.689-3.86-1.905l-.332 1.972Z"/>
    <path fill="#000" d="M87.116 212.468a1 1 0 0 0 1.768-.936l-1.768.936Zm-2.25-1.477c.35.047.829.229 1.289.527.464.3.802.65.961.95l1.768-.936c-.37-.7-1.003-1.279-1.642-1.693-.642-.416-1.398-.734-2.108-.83l-.268 1.982Z"/>
    <circle cx="99.5" cy="140.5" r="5.5" fill="#159360" stroke="#000" stroke-width="2"/>
    <circle cx="107.874" cy="142.368" r="5.5" fill="#159360" stroke="#000" stroke-width="2" transform="rotate(26.174 107.874 142.368)"/>
    <circle cx="114.441" cy="147.541" r="5.5" fill="#159360" stroke="#000" stroke-width="2" transform="rotate(51.226 114.441 147.541)"/>
    <circle cx="118.229" cy="155.24" r="5.5" fill="#159360" stroke="#000" stroke-width="2" transform="rotate(77.4 118.229 155.24)"/>
    <circle cx="80.996" cy="163.671" r="5.5" fill="#159360" stroke="#000" stroke-width="2" transform="rotate(-102.927 80.996 163.671)"/>
    <circle cx="80.944" cy="155.091" r="5.5" fill="#159360" stroke="#000" stroke-width="2" transform="rotate(-76.752 80.944 155.091)"/>
    <circle cx="84.517" cy="147.533" r="5.5" fill="#159360" stroke="#000" stroke-width="2" transform="rotate(-51.7 84.517 147.533)"/>
    <circle cx="91.173" cy="142.119" r="5.5" fill="#159360" stroke="#000" stroke-width="2" transform="rotate(-25.526 91.173 142.119)"/>
    <circle cx="99.429" cy="178.312" r="5.5" fill="#159360" stroke="#000" stroke-width="2" transform="rotate(-179.517 99.429 178.312)"/>
    <circle cx="91.071" cy="176.374" r="5.5" fill="#159360" stroke="#000" stroke-width="2" transform="rotate(-153.343 91.071 176.374)"/>
    <circle cx="84.547" cy="171.145" r="5.5" fill="#159360" stroke="#000" stroke-width="2" transform="rotate(-128.291 84.547 171.145)"/>
    <circle cx="118.107" cy="163.878" r="5.5" fill="#159360" stroke="#000" stroke-width="2" transform="rotate(103.731 118.107 163.878)"/>
    <circle cx="114.471" cy="171.406" r="5.5" fill="#159360" stroke="#000" stroke-width="2" transform="rotate(128.782 114.471 171.406)"/>
    <circle cx="107.769" cy="176.763" r="5.5" fill="#159360" stroke="#000" stroke-width="2" transform="rotate(154.957 107.769 176.763)"/>
    <circle cx="99.5" cy="159.5" r="19.5" fill="#000"/>
    <path fill="#E9053C" stroke="#000" d="M110.12 152.879c2.146 3.375-2.803 7.706-7.942 8.011l-2.682-4.219c2.188-4.946 8.478-7.168 10.624-3.792Z"/>
    <path fill="#E9053C" stroke="#000" d="M110.467 165.595c-1.912 3.513-8.099 1.285-10.857-3.062l2.39-4.392c5.387-.484 10.379 3.94 8.467 7.454Zm-21.587.589c-2.146-3.376 2.803-7.707 7.942-8.012l2.682 4.22c-2.188 4.946-8.478 7.167-10.624 3.792Z"/>
    <path fill="#E9053C" stroke="#000" d="M99.416 172.062c-4 0-5-6.5-2.5-11h5c3 4.501 1.5 11-2.5 11Zm-10.883-18.594c1.912-3.514 8.1-1.285 10.857 3.062L97 160.922c-5.387.484-10.379-3.941-8.467-7.454Z"/>
    <path fill="#E9053C" stroke="#000" d="M99.584 147c4 0 5 6.5 2.5 11h-5c-3-4.5-1.5-11 2.5-11Z"/>
    <circle cx="99.5" cy="159.5" r="4" fill="#FFD03B" stroke="#000"/>
    <circle cx="53.5" cy="96.5" r="7" fill="#FFF8C4" stroke="#000" stroke-width="3"/>
    <path fill="#FFF8C4" d="M54 91h78.5v11H54z"/>
    <path fill="#000" d="M54 102a1.5 1.5 0 0 0 0 3v-3Zm0 3h78.5v-3H54v3Zm.01-17a1.5 1.5 0 0 0-.02 3l.02-3Zm-.02 3 78.499.49.019-3L54.009 88l-.018 3Z"/>
    <circle cx="54.5" cy="96.5" r="3.5" fill="#E9053C"/>
    <circle cx="98.5" cy="96.5" r="3.5" fill="#E9053C"/>
    <circle cx="76.5" cy="96.5" r="3.5" fill="#E9053C"/>
    <circle cx="120.5" cy="96.5" r="3.5" fill="#E9053C"/>
    <circle cx="65.5" cy="96.5" r="3.5" fill="#159360"/>
    <circle cx="109.5" cy="96.5" r="3.5" fill="#159360"/>
    <circle cx="87.5" cy="96.5" r="3.5" fill="#159360"/>
    <path stroke="#E9053C" stroke-linecap="round" stroke-width="3" d="M81.5 135c-7.5-9-13.575-8.561-14.5-15.5-1-7.5 3.5-9.5 7-10m25.591 10.145c-1.833-4 .67-10.715 6.5-9.5 12 2.5 5.368 14.595 4.5 18.5-1 4.5 7 6.5 6 0"/>
    <path stroke="#159360" stroke-linecap="round" stroke-width="3" d="M84.277 108c-8 3-8 13-2 19 8.631 8.631 27 0 24.5-8.5"/>
    <path stroke="#E9053C" stroke-linecap="round" stroke-width="3" d="M110.5 190c.5 5 7-.5 3.5-3.5s-10.5-1-9.5 5 12.5 4.5 11 11.5-6.5 5.5-7.5 2m5.654 28c2 5-2.749 8.306-7 5-4.5-3.5 1.5-6.5 2.5-3"/>
    <path fill="#E9053C" d="M120.5 139.5c-.5 5 8 2.5 12 9V142c-2.5-8.5-11.638-6.122-12-2.5Z"/>
    <path fill="#E9053C" d="M125.5 130.5c0 4.5 4.5 5 7 12v-18c-2.5 2-7 1.2-7 6Z"/>
    <path stroke="#159360" stroke-linecap="round" stroke-width="3" d="M124.5 118c-4 2.5-1 6.5 2 5 1.844-.922 5-5.5-.5-9.5-4.125-3-9 0-8.5 4"/>
    <path stroke="#000" stroke-linecap="round" stroke-width="3" d="M73.448 180.624c-3.098 1.584-.775 4.119 1.548 3.169 1.428-.585 3.872-3.486-.387-6.021-3.194-1.901-6.969 0-6.581 2.535"/>
    <path stroke="#159360" stroke-linecap="round" stroke-width="3" d="M130.5 236.205c-2.833-.5-8.1-.4-12.5 4s-7.667 3.5-9 2.5M87 186c9 0 9 7.5 18 15.5"/>
    <path fill="url(#d)" d="M208.5 104h-76v191.5l32-3 12.5-7 14-91.5 8-11.5 9.5-78.5Z"/>
    <path stroke="#000" stroke-width="6" d="M208 103c-6 54-5 87.5-20 92-17 5.1-23 11-23 24.5"/>
    <path stroke="#000" stroke-linecap="round" stroke-width="3" d="M177.21 231.984c3.5-8-5.5-13-10 0s-14.5 22.5-22.5 24c-9.5 1.781-14.5-9.5-6.5-15"/>
    <path fill="#FFF8C4" stroke="#000" stroke-width="2" d="M137.708 210c-.648 0-1.187.135-1.643.403-.454.268-.888.705-1.27 1.408-.784 1.442-1.295 3.903-1.295 7.856 0 2.97.006 6.168.621 8.623.306 1.221.739 2.155 1.31 2.773.54.583 1.248.937 2.277.937 1.48 0 2.545-.222 3.33-.624.762-.389 1.333-.984 1.769-1.881.448-.92.754-2.159.942-3.808.187-1.643.251-3.631.251-6.02 0-4.755-.788-7.094-1.831-8.27-.995-1.12-2.417-1.397-4.461-1.397Z"/>
    <path fill="#159360" d="M138.042 212c-2.155 0-3.542 2-3.542 8 0 4.4 0 10 3.542 10 4.264 0 4.958-2.8 4.958-10s-2.125-8-4.958-8Z"/>
    <path fill="#FFF8C4" stroke="#000" stroke-width="2" d="M148.75 210c-2.281 0-3.75 2.222-3.75 8.889 0 4.889 0 11.111 3.75 11.111 4.516 0 5.25-3.111 5.25-11.111S151.75 210 148.75 210Z"/>
    <path fill="#159360" d="M148.917 212c-1.774 0-2.917 1.778-2.917 7.111 0 3.911 0 8.889 2.917 8.889 3.512 0 4.083-2.489 4.083-8.889 0-6.4-1.75-7.111-4.083-7.111Z"/>
    <path fill="#FFF8C4" stroke="#000" stroke-width="2" d="M156.917 212c-1.774 0-2.917 1.667-2.917 6.667 0 3.666 0 8.333 2.917 8.333 3.512 0 4.083-2.333 4.083-8.333S159.25 212 156.917 212Z"/>
    <path fill="#159360" d="M157.083 214c-1.267 0-2.083 1.222-2.083 4.889 0 2.689 0 6.111 2.083 6.111 2.509 0 2.917-1.711 2.917-6.111 0-4.4-1.25-4.889-2.917-4.889Z"/>
    <path fill="#FFF8C4" stroke="#000" stroke-width="2" d="M163.5 213c-1.521 0-2.5 1.333-2.5 5.333 0 2.934 0 6.667 2.5 6.667 3.01 0 3.5-1.867 3.5-6.667S165.5 213 163.5 213Z"/>
    <path fill="#159360" d="M163.667 215c-1.014 0-1.667.889-1.667 3.556 0 1.955 0 4.444 1.667 4.444 2.007 0 2.333-1.244 2.333-4.444S165 215 163.667 215Z"/>
    <path stroke="#000" stroke-width="3" d="M167 218.5c-6 1-25.5 3.5-34.5 3"/>
    <path fill="#000" d="M161.458 208.287a1 1 0 1 1-1.916-.574l1.916.574ZM177 199c-8.165 0-14.197 4.805-15.542 9.287l-1.916-.574C161.197 202.195 168.165 197 177 197v2Z"/>
    <path fill="#159360" stroke="#000" stroke-width="2" d="M145.046 194.577c1.629-5.213-.395-15.223-11.546-27.541v27.136c2.464 3.289 5.015 4.534 6.99 4.485 1.956-.05 3.713-1.384 4.556-4.08Z"/>
    <path fill="#000" d="M133 193.159c8.225 13.61 19.974-3.286 0-28.159v28.159Z"/>
    <path stroke="#000" stroke-width="6" d="M192 193c-3 23.667-10 74-13 86-3.525 14.1-25 17-46.5 17"/>
    <circle cx="5.5" cy="5.5" r="5.5" fill="#000" transform="matrix(-1 0 0 1 174 247)"/>
    <circle cx="5.5" cy="5.5" r="5.5" fill="#000" transform="matrix(-1 0 0 1 161 255)"/>
    <circle cx="5.5" cy="5.5" r="5.5" fill="#000" transform="matrix(-1 0 0 1 171 267)"/>
    <circle cx="5.5" cy="5.5" r="5.5" fill="#000" transform="matrix(-1 0 0 1 157 272)"/>
    <circle cx="5.5" cy="5.5" r="5.5" fill="#000" transform="matrix(-1 0 0 1 147 262)"/>
    <path fill="#000" d="M179.991 221.666a1.5 1.5 0 0 1-2.982-.332l2.982.332Zm2.006-22.078c-.402 6.842-1.506 17.575-2.006 22.078l-2.982-.332c.5-4.497 1.596-15.164 1.994-21.922l2.994.176Z"/>
    <path fill="#000" d="M172.419 211.394a.999.999 0 1 1-1.838-.788l1.838.788Zm7.745-6.408c-1.281.214-2.876.99-4.352 2.17-1.468 1.175-2.723 2.675-3.393 4.238l-1.838-.788c.83-1.937 2.325-3.687 3.982-5.012 1.649-1.32 3.554-2.294 5.273-2.58l.328 1.972Z"/>
    <path fill="#000" d="M174.921 212.39a1 1 0 0 1-1.842-.78l1.842.78Zm5.245-4.404c-.838.141-1.918.665-2.934 1.488-1.009.816-1.861 1.852-2.311 2.916l-1.842-.78c.608-1.436 1.698-2.722 2.895-3.691 1.189-.963 2.58-1.689 3.86-1.905l.332 1.972Z"/>
    <path fill="#000" d="M177.884 212.468a1.001 1.001 0 0 1-1.768-.936l1.768.936Zm2.25-1.477c-.349.047-.829.229-1.289.527-.464.3-.802.65-.961.95l-1.768-.936c.371-.7 1.003-1.279 1.642-1.693.642-.416 1.399-.734 2.108-.83l.268 1.982Z"/>
    <circle cx="4.5" cy="4.5" r="5.5" fill="#159360" stroke="#000" stroke-width="2" transform="matrix(-1 0 0 1 170 136)"/>
    <circle cx="4.5" cy="4.5" r="5.5" fill="#159360" stroke="#000" stroke-width="2" transform="scale(-1 1) rotate(26.174 -372.84 -274.192)"/>
    <circle cx="4.5" cy="4.5" r="5.5" fill="#159360" stroke="#000" stroke-width="2" transform="scale(-1 1) rotate(51.226 -222.218 -85.702)"/>
    <circle cx="4.5" cy="4.5" r="5.5" fill="#159360" stroke="#000" stroke-width="2" transform="scale(-1 1) rotate(77.4 -165.212 -14.538)"/>
    <circle cx="4.5" cy="4.5" r="5.5" fill="#159360" stroke="#000" stroke-width="2" transform="scale(1 -1) rotate(77.073 199.823 33.1)"/>
    <circle cx="4.5" cy="4.5" r="5.5" fill="#159360" stroke="#000" stroke-width="2" transform="scale(-1 1) rotate(-76.752 5.303 198.846)"/>
    <circle cx="4.5" cy="4.5" r="5.5" fill="#159360" stroke="#000" stroke-width="2" transform="scale(-1 1) rotate(-51.701 59.616 266.917)"/>
    <circle cx="4.5" cy="4.5" r="5.5" fill="#159360" stroke="#000" stroke-width="2" transform="scale(-1 1) rotate(-25.526 219.108 466.936)"/>
    <circle cx="4.5" cy="4.5" r="5.5" fill="#159360" stroke="#000" stroke-width="2" transform="scale(1 -1) rotate(.483 21769.171 19018.4)"/>
    <circle cx="4.5" cy="4.5" r="5.5" fill="#159360" stroke="#000" stroke-width="2" transform="scale(1 -1) rotate(26.657 470.934 271.63)"/>
    <circle cx="4.5" cy="4.5" r="5.5" fill="#159360" stroke="#000" stroke-width="2" transform="scale(1 -1) rotate(51.709 273.706 98.224)"/>
    <circle cx="4.5" cy="4.5" r="5.5" fill="#159360" stroke="#000" stroke-width="2" transform="scale(1 -1) rotate(-76.269 -31.54 -170.377)"/>
    <circle cx="4.5" cy="4.5" r="5.5" fill="#159360" stroke="#000" stroke-width="2" transform="scale(1 -1) rotate(-51.218 -105.985 -235.786)"/>
    <circle cx="4.5" cy="4.5" r="5.5" fill="#159360" stroke="#000" stroke-width="2" transform="scale(1 -1) rotate(-25.043 -327.22 -429.98)"/>
    <circle cx="19.5" cy="19.5" r="19.5" fill="#000" transform="matrix(-1 0 0 1 185 140)"/>
    <path fill="#E9053C" stroke="#000" d="M154.88 152.879c-2.146 3.375 2.803 7.706 7.942 8.011l2.682-4.219c-2.188-4.946-8.478-7.168-10.624-3.792Z"/>
    <path fill="#E9053C" stroke="#000" d="M154.533 165.595c1.912 3.513 8.099 1.285 10.857-3.062l-2.39-4.392c-5.387-.484-10.379 3.94-8.467 7.454Zm21.587.589c2.146-3.376-2.803-7.707-7.942-8.012l-2.682 4.22c2.188 4.946 8.478 7.167 10.624 3.792Z"/>
    <path fill="#E9053C" stroke="#000" d="M165.584 172.062c4 0 5-6.5 2.5-11h-5c-3 4.501-1.5 11 2.5 11Zm10.883-18.594c-1.912-3.514-8.099-1.285-10.857 3.062l2.39 4.392c5.387.484 10.379-3.941 8.467-7.454Z"/>
    <path fill="#E9053C" stroke="#000" d="M165.416 147c-4 0-5 6.5-2.5 11h5c3-4.5 1.5-11-2.5-11Z"/>
    <circle cx="4.5" cy="4.5" r="4" fill="#FFD03B" stroke="#000" transform="matrix(-1 0 0 1 170 155)"/>
    <circle cx="5.5" cy="5.5" r="7" fill="#FFF8C4" stroke="#000" stroke-width="3" transform="matrix(-1 0 0 1 217 91)"/>
    <path fill="#FFF8C4" d="M211 91h-78.5v11H211z"/>
    <path fill="#000" d="M211 102a1.5 1.5 0 0 1 0 3v-3Zm0 3h-78.5v-3H211v3Zm-.009-17a1.5 1.5 0 1 1 .018 3l-.018-3Zm.018 3-78.498.49-.019-3 78.499-.49.018 3Z"/>
    <circle cx="3.5" cy="3.5" r="3.5" fill="#E9053C" transform="matrix(-1 0 0 1 214 93)"/>
    <circle cx="3.5" cy="3.5" r="3.5" fill="#E9053C" transform="matrix(-1 0 0 1 170 93)"/>
    <circle cx="3.5" cy="3.5" r="3.5" fill="#E9053C" transform="matrix(-1 0 0 1 192 93)"/>
    <circle cx="3.5" cy="3.5" r="3.5" fill="#E9053C" transform="matrix(-1 0 0 1 148 93)"/>
    <circle cx="3.5" cy="3.5" r="3.5" fill="#159360" transform="matrix(-1 0 0 1 203 93)"/>
    <circle cx="3.5" cy="3.5" r="3.5" fill="#159360" transform="matrix(-1 0 0 1 159 93)"/>
    <circle cx="3.5" cy="3.5" r="3.5" fill="#159360" transform="matrix(-1 0 0 1 181 93)"/>
    <path stroke="#E9053C" stroke-linecap="round" stroke-width="3" d="M183.5 135c7.5-9 13.575-8.561 14.5-15.5 1-7.5-3.5-9.5-7-10m-25.591 10.145c1.833-4-.67-10.715-6.5-9.5-12 2.5-5.368 14.595-4.5 18.5 1 4.5-7 6.5-6 0"/>
    <path stroke="#159360" stroke-linecap="round" stroke-width="3" d="M180.723 108c8 3 8 13 2 19-8.631 8.631-27 0-24.5-8.5"/>
    <path stroke="#E9053C" stroke-linecap="round" stroke-width="3" d="M154.5 190c-.5 5-7-.5-3.5-3.5s10.5-1 9.5 5-12.5 4.5-11 11.5 6.5 5.5 7.5 2m-5.654 28c-2 5 2.749 8.306 7 5 4.5-3.5-1.5-6.5-2.5-3"/>
    <path fill="#E9053C" d="M144.5 139.5c.5 5-8 2.5-12 9V142c2.5-8.5 11.638-6.122 12-2.5Z"/>
    <path fill="#E9053C" d="M139.5 130.5c0 4.5-4.5 5-7 12v-18c2.5 2 7 1.2 7 6Z"/>
    <path stroke="#159360" stroke-linecap="round" stroke-width="3" d="M140.5 118c4 2.5 1 6.5-2 5-1.844-.922-5-5.5.5-9.5 4.125-3 9 0 8.5 4"/>
    <path stroke="#000" stroke-linecap="round" stroke-width="3" d="M191.552 180.624c3.098 1.584.775 4.119-1.548 3.169-1.428-.585-3.872-3.486.387-6.021 3.194-1.901 6.969 0 6.581 2.535"/>
    <path stroke="#159360" stroke-linecap="round" stroke-width="3" d="M134.5 236.205c2.833-.5 8.1-.4 12.5 4s7.667 3.5 9 2.5M178 186c-9 0-9 7.5-18 15.5"/>
    <circle cx="132.5" cy="96.5" r="3.5" fill="#159360"/>
    <circle cx="132.5" cy="280.5" r="5.5" fill="#000"/>
    <path fill="#000" d="M24.528 323.608c0 1.568-.464 3.024-1.392 4.368-.896 1.344-2.176 2.368-3.84 3.072 2.56.608 4.512 1.728 5.856 3.36 1.376 1.6 2.064 3.392 2.064 5.376 0 2.624-.896 4.816-2.688 6.576-1.792 1.76-4.208 2.64-7.248 2.64-.224 0-3.168-.128-8.832-.384L3.12 349c-.48 0-.72-.48-.72-1.44l4.032-1.056v-28.608L2.4 316.84c0-.96.24-1.44.72-1.44.288 0 1.936.064 4.944.192 3.904-.128 5.984-.192 6.24-.192 3.2 0 5.696.816 7.488 2.448 1.824 1.6 2.736 3.52 2.736 5.76Zm-8.496 23.28c2.4 0 4.224-.688 5.472-2.064 1.248-1.376 1.872-3.056 1.872-5.04s-.72-3.728-2.16-5.232c-1.408-1.504-3.424-2.256-6.048-2.256l-4.896.576-.432 13.344c2.368.448 4.432.672 6.192.672Zm-2.352-29.664-3.84.672.432 12.672h3.936c2.112-.192 3.76-.944 4.944-2.256 1.184-1.344 1.776-2.88 1.776-4.608 0-1.76-.64-3.28-1.92-4.56-1.28-1.28-3.056-1.92-5.328-1.92Zm29.535 7.92c3.488 0 6.352 1.008 8.592 3.024s3.36 4.992 3.36 8.928c0 3.936-1.136 6.976-3.408 9.12-2.24 2.112-5.168 3.168-8.784 3.168-3.616 0-6.512-1.04-8.688-3.12-2.144-2.112-3.216-5.104-3.216-8.976 0-3.904 1.152-6.896 3.456-8.976 2.304-2.112 5.2-3.168 8.688-3.168Zm-8.4 12.048c0 3.264.768 5.76 2.304 7.488 1.536 1.728 3.536 2.592 6 2.592s4.464-.864 6-2.592c1.536-1.728 2.304-4.192 2.304-7.392s-.768-5.632-2.304-7.296c-1.536-1.696-3.536-2.544-6-2.544-1.6 0-3.232.24-4.896.72-1.024.768-1.856 1.968-2.496 3.6-.608 1.6-.912 3.408-.912 5.424ZM70.779 349l-6.432-.288-3.984.288c-.576 0-.864-.496-.864-1.488l3.072-.672v-19.152l-3.072-.672c0-.992.288-1.488.864-1.488.48 0 1.808.048 3.984.144l4.272-.144c2.464 0 4.384.592 5.76 1.776 1.376 1.152 2.064 2.528 2.064 4.128 0 .992-.288 1.936-.864 2.832-.544.896-1.328 1.616-2.352 2.16 1.696.512 2.976 1.328 3.84 2.448.896 1.088 1.344 2.288 1.344 3.6 0 1.856-.688 3.408-2.064 4.656-1.376 1.248-3.232 1.872-5.568 1.872Zm-5.088-2.4c1.536.256 3.024.384 4.464.384 1.472 0 2.64-.432 3.504-1.296.864-.896 1.296-1.968 1.296-3.216 0-1.248-.512-2.352-1.536-3.312-1.024-.992-2.4-1.52-4.128-1.584l-3.264.384-.336 8.64Zm2.544-19.248-2.544.384.336 8.112h2.448c1.472-.128 2.608-.608 3.408-1.44.832-.864 1.248-1.824 1.248-2.88 0-1.088-.448-2.048-1.344-2.88-.864-.832-2.048-1.264-3.552-1.296Zm18.06 19.488 3.217.672c0 .992-.288 1.488-.864 1.488-.256 0-1.648-.048-4.176-.144L81.16 349c-.544 0-.816-.48-.816-1.44l2.784-.72 8.112-21.312h3.12l8.208 21.264 2.784.768c0 .96-.288 1.44-.864 1.44-.544 0-1.824-.048-3.84-.144l-4.176.144c-.576 0-.864-.496-.864-1.488l3.264-.672-1.92-5.328-8.928.48-1.728 4.848Zm6.193-17.616-3.648 10.272h7.344l-3.696-10.272Zm45.448-6.864v-4.512l-11.28.144.432 13.392 11.808.048v2.064l-11.856.624-.384 12.384 5.328 1.056c0 .96-.24 1.44-.72 1.44-1.376 0-3.552-.064-6.528-.192l-4.944.192c-.48 0-.72-.48-.72-1.44l4.032-1.056v-28.608l-4.032-1.056c0-.96.24-1.44.72-1.44.288 0 1.936.064 4.944.192l14.88-.192c.992 0 1.504.16 1.536.48L140 323.032c-1.376 0-2.064-.224-2.064-.672Zm15.687 3.168c.608 0 .912.496.912 1.488l-3.312.72v13.968c0 1.632.512 2.928 1.536 3.888s2.592 1.44 4.704 1.44c2.144 0 3.76-.512 4.848-1.536 1.12-1.056 1.68-2.336 1.68-3.84v-13.92l-3.36-.72c0-.992.304-1.488.912-1.488l3.84.144 2.592-.144c.64 0 .96.496.96 1.488l-2.256.72v13.824c0 2.368-.832 4.272-2.496 5.712-1.632 1.408-3.872 2.112-6.72 2.112-6.432 0-9.648-2.608-9.648-7.824v-13.824l-2.592-.672c0-1.024.272-1.536.816-1.536.16 0 1.36.048 3.6.144l3.984-.144Zm35.812 17.616c0 1.984-.8 3.52-2.4 4.608-1.6 1.088-3.648 1.632-6.144 1.632s-5.12-.544-7.872-1.632c.064-1.024.256-2.256.576-3.696.352-1.472.544-2.208.576-2.208 1.216 0 1.824.24 1.824.72v3.456c1.44.768 3.04 1.152 4.8 1.152 1.76 0 3.04-.336 3.84-1.008.8-.672 1.2-1.536 1.2-2.592 0-1.376-.784-2.496-2.352-3.36l-6.144-3.312c-1.216-.672-2.16-1.488-2.832-2.448-.64-.992-.96-2-.96-3.024 0-1.728.736-3.2 2.208-4.416 1.504-1.248 3.552-1.872 6.144-1.872 1.856 0 4 .416 6.432 1.248l-1.008 5.52c-1.376 0-2.064-.24-2.064-.72v-3.168a10.79 10.79 0 0 0-3.6-.624c-2.24 0-3.856.736-4.848 2.208-.128.384-.192.8-.192 1.248 0 1.376.832 2.512 2.496 3.408l6 3.168c1.408.736 2.48 1.616 3.216 2.64.736 1.024 1.104 2.048 1.104 3.072Zm7.855-15.456-3.072-.672c0-.992.288-1.488.864-1.488.48 0 1.808.048 3.984.144l3.888-.144c.544 0 .816.48.816 1.44l-3.072.72v19.152l3.072.672c0 .992-.272 1.488-.816 1.488l-3.888-.288-3.984.288c-.576 0-.864-.496-.864-1.488l3.072-.672v-19.152Zm22.925-2.544c3.488 0 6.352 1.008 8.592 3.024s3.36 4.992 3.36 8.928c0 3.936-1.136 6.976-3.408 9.12-2.24 2.112-5.168 3.168-8.784 3.168-3.616 0-6.512-1.04-8.688-3.12-2.144-2.112-3.216-5.104-3.216-8.976 0-3.904 1.152-6.896 3.456-8.976 2.304-2.112 5.2-3.168 8.688-3.168Zm-8.4 12.048c0 3.264.768 5.76 2.304 7.488 1.536 1.728 3.536 2.592 6 2.592s4.464-.864 6-2.592c1.536-1.728 2.304-4.192 2.304-7.392s-.768-5.632-2.304-7.296c-1.536-1.696-3.536-2.544-6-2.544-1.6 0-3.232.24-4.896.72-1.024.768-1.856 1.968-2.496 3.6-.608 1.6-.912 3.408-.912 5.424Zm41.34-11.664 4.512.144 3.264-.144c.544.064.816.56.816 1.488l-2.736.72-.144 21.264h-2.16l-14.88-18.48c.032 1.792.096 4.512.192 8.16.096 3.616.16 6.336.192 8.16.8.192 2.064.416 3.792.672 0 .992-.288 1.488-.864 1.488l-4.416-.288-3.6.288c-.576 0-.864-.496-.864-1.488l3.168-.72-.144-19.056-3.024-.672c0-1.024.288-1.536.864-1.536.448 0 2.128.048 5.04.144l14.256 18.048-.288-15.984-3.792-.672c0-1.024.272-1.536.816-1.536Z"/>
  </g>
  <defs>
    <linearGradient id="c" x1="94.5" x2="94.5" y1="104" y2="295.5" gradientUnits="userSpaceOnUse">
      <stop stop-color="#FFF8C4"/>
      <stop offset=".635" stop-color="#FFF8C4"/>
      <stop offset="1" stop-color="#FA9307"/>
    </linearGradient>
    <linearGradient id="d" x1="170.5" x2="170.5" y1="104" y2="295.5" gradientUnits="userSpaceOnUse">
      <stop stop-color="#FFF8C4"/>
      <stop offset=".635" stop-color="#FFF8C4"/>
      <stop offset="1" stop-color="#FA9307"/>
    </linearGradient>
    <clipPath id="a">
      <use xlink:href="#b"/>
    </clipPath>
  </defs>
</svg>
