<svg xmlns="http://www.w3.org/2000/svg" fill="none" viewBox="0 0 96 297">
  <path fill="#FFF8C4" d="M92.5 9v79h-11V9z"/>
  <path fill="#000" d="M82 7a2 2 0 1 0-4 0h4Zm-4 0v80h4V7h-4Zm18 0a2 2 0 1 0-4 0h4Zm-4 0v80h4V7h-4Z"/>
  <path fill="#FFF8C4" stroke="#000" stroke-width="3" d="M79.5 7a4.98 4.98 0 0 0 2.43 4.08A9.22 9.22 0 0 0 87 12.5a9.2 9.2 0 0 0 5.07-1.42A4.98 4.98 0 0 0 94.5 7a4.98 4.98 0 0 0-2.43-4.08A9.22 9.22 0 0 0 87 1.5a9.2 9.2 0 0 0-5.07 1.42A4.98 4.98 0 0 0 79.5 7Z"/>
  <path fill="url(#a)" d="M11.5 102h76v191.5l-32-3-12.5-7L29 192l-8-11.5-9.5-78.5Z"/>
  <path stroke="#000" stroke-width="6" d="M12 101c6 54 5 87.5 20 92 17 5.1 23 11 23 24.5"/>
  <path stroke="#000" stroke-linecap="round" stroke-width="3" d="M42.79 229.98c-3.5-8 5.5-13 10 0s14.5 22.5 22.5 24c9.5 1.78 14.5-9.5 6.5-15"/>
  <path fill="#FFF8C4" stroke="#000" stroke-width="2" d="M82.3 208c.64 0 1.18.13 1.63.4.46.27.9.7 1.28 1.41.78 1.44 1.29 3.9 1.29 7.86 0 2.97 0 6.17-.62 8.62a6.32 6.32 0 0 1-1.31 2.77 2.9 2.9 0 0 1-2.28.94 7.29 7.29 0 0 1-3.33-.62 3.9 3.9 0 0 1-1.77-1.88c-.45-.93-.75-2.16-.94-3.81a55.08 55.08 0 0 1-.25-6.02c0-4.76.79-7.1 1.83-8.27 1-1.12 2.42-1.4 4.46-1.4Z"/>
  <path fill="#159360" d="M81.96 210c2.15 0 3.54 2 3.54 8 0 4.4 0 10-3.54 10-4.27 0-4.96-2.8-4.96-10s2.13-8 4.96-8Z"/>
  <path fill="#FFF8C4" stroke="#000" stroke-width="2" d="M71.25 208c2.28 0 3.75 2.22 3.75 8.89 0 4.89 0 11.11-3.75 11.11-4.52 0-5.25-3.11-5.25-11.11s2.25-8.89 5.25-8.89Z"/>
  <path fill="#159360" d="M71.08 210c1.78 0 2.92 1.78 2.92 7.11 0 3.91 0 8.89-2.92 8.89-3.5 0-4.08-2.49-4.08-8.89s1.75-7.11 4.08-7.11Z"/>
  <path fill="#FFF8C4" stroke="#000" stroke-width="2" d="M63.08 210c1.78 0 2.92 1.67 2.92 6.67 0 3.66 0 8.33-2.92 8.33-3.5 0-4.08-2.33-4.08-8.33s1.75-6.67 4.08-6.67Z"/>
  <path fill="#159360" d="M62.92 212c1.26 0 2.08 1.22 2.08 4.89 0 2.69 0 6.11-2.08 6.11-2.51 0-2.92-1.71-2.92-6.11s1.25-4.89 2.92-4.89Z"/>
  <path fill="#FFF8C4" stroke="#000" stroke-width="2" d="M56.5 211c1.52 0 2.5 1.33 2.5 5.33 0 2.94 0 6.67-2.5 6.67-3.01 0-3.5-1.87-3.5-6.67s1.5-5.33 3.5-5.33Z"/>
  <path fill="#159360" d="M56.33 213c1.02 0 1.67.89 1.67 3.56 0 1.95 0 4.44-1.67 4.44-2 0-2.33-1.24-2.33-4.44s1-3.56 2.33-3.56Z"/>
  <path stroke="#000" stroke-width="3" d="M53 216.5c6 1 25.5 3.5 34.5 3"/>
  <path fill="#000" d="M58.54 206.29a1 1 0 1 0 1.92-.58l-1.92.58ZM43 197c8.17 0 14.2 4.8 15.54 9.29l1.92-.58C58.8 200.2 51.83 195 43 195v2Z"/>
  <path fill="#159360" stroke="#000" stroke-width="2" d="M74.95 192.58c-1.62-5.22.4-15.23 11.55-27.54v27.13c-2.46 3.3-5.02 4.54-6.99 4.49-1.96-.05-3.71-1.39-4.56-4.08Z"/>
  <path fill="#000" d="M87 191.16c-8.22 13.6-19.97-3.29 0-28.16v28.16Z"/>
  <path stroke="#000" stroke-width="6" d="M28 191c3 23.67 10 74 13 86 3.53 14.1 25 17 46.5 17"/>
  <circle cx="51.5" cy="250.5" r="5.5" fill="#000"/>
  <circle cx="64.5" cy="258.5" r="5.5" fill="#000"/>
  <circle cx="54.5" cy="270.5" r="5.5" fill="#000"/>
  <circle cx="68.5" cy="275.5" r="5.5" fill="#000"/>
  <circle cx="78.5" cy="265.5" r="5.5" fill="#000"/>
  <path fill="#000" d="M40 219.67a1.5 1.5 0 0 0 3-.34l-3 .34Zm-2-22.08c.4 6.84 1.5 17.57 2 22.08l3-.34c-.5-4.5-1.6-15.16-2-21.92l-3 .18Z"/>
  <path fill="#000" d="M47.58 209.4a1 1 0 1 0 1.84-.8l-1.84.8Zm-7.74-6.41c1.28.21 2.87.99 4.35 2.17a11.5 11.5 0 0 1 3.4 4.23l1.83-.78a13.48 13.48 0 0 0-3.98-5.02 12.13 12.13 0 0 0-5.28-2.58l-.32 1.98Z"/>
  <path fill="#000" d="M45.08 210.39a1 1 0 1 0 1.84-.78l-1.84.78Zm-5.25-4.4c.84.14 1.92.66 2.94 1.48a7.9 7.9 0 0 1 2.3 2.92l1.85-.78a9.9 9.9 0 0 0-2.9-3.7 8.82 8.82 0 0 0-3.85-1.9l-.34 1.98Z"/>
  <path fill="#000" d="M42.12 210.47a1 1 0 0 0 1.76-.94l-1.76.94Zm-2.25-1.48c.35.05.82.23 1.28.53.47.3.8.65.97.95l1.76-.94a4.8 4.8 0 0 0-1.64-1.7 5.37 5.37 0 0 0-2.1-.82l-.27 1.98Z"/>
  <circle cx="54.5" cy="138.5" r="5.5" fill="#159360" stroke="#000" stroke-width="2"/>
  <circle cx="62.87" cy="140.37" r="5.5" fill="#159360" stroke="#000" stroke-width="2" transform="rotate(26.17 62.87 140.37)"/>
  <circle cx="69.44" cy="145.54" r="5.5" fill="#159360" stroke="#000" stroke-width="2" transform="rotate(51.23 69.44 145.54)"/>
  <circle cx="73.23" cy="153.24" r="5.5" fill="#159360" stroke="#000" stroke-width="2" transform="rotate(77.4 73.23 153.24)"/>
  <circle cx="36" cy="161.67" r="5.5" fill="#159360" stroke="#000" stroke-width="2" transform="rotate(-102.93 36 161.67)"/>
  <circle cx="35.94" cy="153.09" r="5.5" fill="#159360" stroke="#000" stroke-width="2" transform="rotate(-76.75 35.94 153.1)"/>
  <circle cx="39.52" cy="145.53" r="5.5" fill="#159360" stroke="#000" stroke-width="2" transform="rotate(-51.7 39.52 145.53)"/>
  <circle cx="46.17" cy="140.12" r="5.5" fill="#159360" stroke="#000" stroke-width="2" transform="rotate(-25.53 46.17 140.12)"/>
  <circle cx="54.43" cy="176.31" r="5.5" fill="#159360" stroke="#000" stroke-width="2" transform="rotate(-179.52 54.43 176.31)"/>
  <circle cx="46.07" cy="174.37" r="5.5" fill="#159360" stroke="#000" stroke-width="2" transform="rotate(-153.34 46.07 174.37)"/>
  <circle cx="39.55" cy="169.15" r="5.5" fill="#159360" stroke="#000" stroke-width="2" transform="rotate(-128.3 39.55 169.15)"/>
  <circle cx="73.11" cy="161.88" r="5.5" fill="#159360" stroke="#000" stroke-width="2" transform="rotate(103.73 73.1 161.88)"/>
  <circle cx="69.47" cy="169.41" r="5.5" fill="#159360" stroke="#000" stroke-width="2" transform="rotate(128.78 69.47 169.4)"/>
  <circle cx="62.77" cy="174.76" r="5.5" fill="#159360" stroke="#000" stroke-width="2" transform="rotate(154.96 62.77 174.76)"/>
  <circle cx="54.5" cy="157.5" r="19.5" fill="#000"/>
  <path fill="#E9053C" stroke="#000" d="M65.12 150.88c2.15 3.37-2.8 7.7-7.94 8.01l-2.68-4.22c2.18-4.94 8.47-7.17 10.62-3.8Z"/>
  <path fill="#E9053C" stroke="#000" d="M65.47 163.6c-1.92 3.5-8.1 1.28-10.86-3.07l2.39-4.39c5.39-.48 10.38 3.94 8.47 7.46Zm-21.59.58c-2.15-3.37 2.8-7.7 7.94-8l2.68 4.21c-2.18 4.95-8.47 7.17-10.62 3.8Z"/>
  <path fill="#E9053C" stroke="#000" d="M54.42 170.06c-4 0-5-6.5-2.5-11h5c3 4.5 1.5 11-2.5 11Zm-10.89-18.59c1.92-3.52 8.1-1.29 10.86 3.06l-2.39 4.4c-5.39.48-10.38-3.95-8.47-7.46Z"/>
  <path fill="#E9053C" stroke="#000" d="M54.58 145c4 0 5 6.5 2.5 11h-5c-3-4.5-1.5-11 2.5-11Z"/>
  <circle cx="54.5" cy="157.5" r="4" fill="#FFD03B" stroke="#000"/>
  <circle cx="8.5" cy="94.5" r="7" fill="#FFF8C4" stroke="#000" stroke-width="3"/>
  <path fill="#FFF8C4" d="M9 89h78.5v11H9z"/>
  <path fill="#000" d="M9 100a1.5 1.5 0 0 0 0 3v-3Zm0 3h78.5v-3H9v3Zm0-17a1.5 1.5 0 0 0 0 3v-3Zm0 3 78.49.5.02-3L9 86l-.02 3Z"/>
  <circle cx="9.5" cy="94.5" r="3.5" fill="#E9053C"/>
  <circle cx="53.5" cy="94.5" r="3.5" fill="#E9053C"/>
  <circle cx="31.5" cy="94.5" r="3.5" fill="#E9053C"/>
  <circle cx="75.5" cy="94.5" r="3.5" fill="#E9053C"/>
  <circle cx="20.5" cy="94.5" r="3.5" fill="#159360"/>
  <circle cx="64.5" cy="94.5" r="3.5" fill="#159360"/>
  <circle cx="42.5" cy="94.5" r="3.5" fill="#159360"/>
  <path stroke="#E9053C" stroke-linecap="round" stroke-width="3" d="M36.5 133c-7.5-9-13.57-8.56-14.5-15.5-1-7.5 3.5-9.5 7-10m25.6 10.14c-1.84-4 .66-10.71 6.5-9.5 12 2.5 5.36 14.6 4.5 18.5-1 4.5 7 6.5 6 0"/>
  <path stroke="#159360" stroke-linecap="round" stroke-width="3" d="M39.28 106c-8 3-8 13-2 19 8.63 8.63 27 0 24.5-8.5"/>
  <path stroke="#E9053C" stroke-linecap="round" stroke-width="3" d="M65.5 188c.5 5 7-.5 3.5-3.5s-10.5-1-9.5 5S72 194 70.5 201s-6.5 5.5-7.5 2m5.65 28c2 5-2.75 8.3-7 5-4.5-3.5 1.5-6.5 2.5-3"/>
  <path fill="#E9053C" d="M75.5 137.5c-.5 5 8 2.5 12 9V140c-2.5-8.5-11.64-6.12-12-2.5Z"/>
  <path fill="#E9053C" d="M80.5 128.5c0 4.5 4.5 5 7 12v-18c-2.5 2-7 1.2-7 6Z"/>
  <path stroke="#159360" stroke-linecap="round" stroke-width="3" d="M79.5 116c-4 2.5-1 6.5 2 5 1.84-.92 5-5.5-.5-9.5-4.12-3-9 0-8.5 4"/>
  <path stroke="#000" stroke-linecap="round" stroke-width="3" d="M28.45 178.62c-3.1 1.59-.78 4.12 1.55 3.17 1.42-.58 3.87-3.48-.4-6.02-3.18-1.9-6.96 0-6.57 2.54"/>
  <path stroke="#159360" stroke-linecap="round" stroke-width="3" d="M85.5 234.2c-2.83-.5-8.1-.4-12.5 4s-7.67 3.5-9 2.5M42 184c9 0 9 7.5 18 15.5"/>
  <circle cx="87.5" cy="94.5" r="3.5" fill="#159360"/>
  <circle cx="87.5" cy="278.5" r="5.5" fill="#000"/>
  <defs>
    <linearGradient id="a" x1="49.5" x2="49.5" y1="102" y2="293.5" gradientUnits="userSpaceOnUse">
      <stop stop-color="#FFF8C4"/>
      <stop offset=".64" stop-color="#FFF8C4"/>
      <stop offset="1" stop-color="#FA9307"/>
    </linearGradient>
  </defs>
</svg>
